<svg xmlns="http://www.w3.org/2000/svg" xmlns:xlink="http://www.w3.org/1999/xlink" viewBox="0 0 583.34 699.56"><defs><style>.cls-1,.cls-13,.cls-15{fill:none;}.cls-2{fill:url(#Degradado_sin_nombre_23);}.cls-3{isolation:isolate;}.cls-4{clip-path:url(#clip-path);}.cls-5{clip-path:url(#clip-path-2);}.cls-6{opacity:0.3;fill:url(#Degradado_sin_nombre_25);}.cls-6,.cls-7{mix-blend-mode:color-burn;}.cls-7{opacity:0.45;fill:url(#Degradado_sin_nombre_24);}.cls-12,.cls-14,.cls-15,.cls-8,.cls-9{opacity:0.6;}.cls-11,.cls-12,.cls-14,.cls-15,.cls-8,.cls-9{mix-blend-mode:overlay;}.cls-8{fill:url(#Degradado_sin_nombre_1532);}.cls-9{fill:url(#Degradado_sin_nombre_1533);}.cls-10,.cls-11,.cls-14{fill:#fff;}.cls-11{opacity:0.15;}.cls-13,.cls-15{stroke:#fff;stroke-miterlimit:10;stroke-width:0.49px;}</style><linearGradient id="Degradado_sin_nombre_23" x1="204.71" y1="501.09" x2="204.71" gradientUnits="userSpaceOnUse"><stop offset="0" stop-color="#097ff5"/><stop offset="0.28" stop-color="#1687f7"/><stop offset="0.8" stop-color="#399afd"/><stop offset="1" stop-color="#48a3ff"/></linearGradient><clipPath id="clip-path" transform="translate(71.83 126.15)"><rect class="cls-1" width="409.42" height="501.09"/></clipPath><clipPath id="clip-path-2" transform="translate(71.83 126.15)"><rect class="cls-2" width="409.42" height="501.09"/></clipPath><linearGradient id="Degradado_sin_nombre_25" x1="187.73" y1="387.97" x2="203.33" y2="566.25" gradientUnits="userSpaceOnUse"><stop offset="0" stop-color="#2390ff"/><stop offset="0.05" stop-color="#2390ff" stop-opacity="0.93"/><stop offset="0.3" stop-color="#2390ff" stop-opacity="0.6"/><stop offset="0.52" stop-color="#2390ff" stop-opacity="0.35"/><stop offset="0.7" stop-color="#2390ff" stop-opacity="0.16"/><stop offset="0.84" stop-color="#2390ff" stop-opacity="0.04"/><stop offset="0.91" stop-color="#2390ff" stop-opacity="0"/></linearGradient><linearGradient id="Degradado_sin_nombre_24" x1="197.03" y1="573.41" x2="197.03" y2="422.63" gradientUnits="userSpaceOnUse"><stop offset="0.09" stop-color="#2390ff" stop-opacity="0"/><stop offset="0.16" stop-color="#2390ff" stop-opacity="0.04"/><stop offset="0.3" stop-color="#2390ff" stop-opacity="0.16"/><stop offset="0.48" stop-color="#2390ff" stop-opacity="0.35"/><stop offset="0.7" stop-color="#2390ff" stop-opacity="0.6"/><stop offset="0.95" stop-color="#2390ff" stop-opacity="0.93"/><stop offset="1" stop-color="#2390ff"/></linearGradient><linearGradient id="Degradado_sin_nombre_1532" x1="7492.73" y1="-5258.5" x2="7492.73" y2="-5452.32" gradientTransform="translate(7689.76 -5314.81) rotate(180)" gradientUnits="userSpaceOnUse"><stop offset="0.04" stop-color="#fff" stop-opacity="0"/><stop offset="0.16" stop-color="#fff" stop-opacity="0.02"/><stop offset="0.28" stop-color="#fff" stop-opacity="0.06"/><stop offset="0.4" stop-color="#fff" stop-opacity="0.14"/><stop offset="0.52" stop-color="#fff" stop-opacity="0.24"/><stop offset="0.63" stop-color="#fff" stop-opacity="0.38"/><stop offset="0.75" stop-color="#fff" stop-opacity="0.55"/><stop offset="0.86" stop-color="#fff" stop-opacity="0.75"/><stop offset="0.98" stop-color="#fff" stop-opacity="0.98"/><stop offset="0.99" stop-color="#fff"/></linearGradient><linearGradient id="Degradado_sin_nombre_1533" x1="253.59" y1="-5302.91" x2="253.59" y2="-5417.23" gradientTransform="matrix(1, 0, 0, -1, 0, -5314.81)" gradientUnits="userSpaceOnUse"><stop offset="0" stop-color="#fff" stop-opacity="0"/><stop offset="0.13" stop-color="#fff" stop-opacity="0.02"/><stop offset="0.25" stop-color="#fff" stop-opacity="0.06"/><stop offset="0.38" stop-color="#fff" stop-opacity="0.14"/><stop offset="0.5" stop-color="#fff" stop-opacity="0.24"/><stop offset="0.62" stop-color="#fff" stop-opacity="0.38"/><stop offset="0.74" stop-color="#fff" stop-opacity="0.55"/><stop offset="0.86" stop-color="#fff" stop-opacity="0.75"/><stop offset="0.98" stop-color="#fff" stop-opacity="0.98"/><stop offset="0.99" stop-color="#fff"/></linearGradient></defs><g class="cls-3"><g id="Layer_2" data-name="Layer 2"><g id="OBJECTS"><g class="cls-4"><rect class="cls-2" x="71.83" y="126.15" width="409.42" height="501.09"/><g class="cls-5"><rect class="cls-1" x="71.83" y="126.15" width="409.42" height="501.09"/><path class="cls-6" d="M-71.83,445.88c18.88-18.34,49.89-30,78.85-24.45C27,425.25,44.7,434.33,62.92,442s38.27,14.26,58.61,12.39c44.52-4.1,72.54-45.81,116.63-52.34,46.9-6.95,95.74,28.42,139.49,12.8,31.61-11.27,47.28-45.89,81.21-50.64V543.89H-71.83Z" transform="translate(71.83 126.15)"/><path class="cls-7" d="M-30.48,459.29c24.45,4,38-.12,58.31-11.09,13.64-7.36,25.15-17.86,41.41-21,19.85-3.89,40.37,4.5,55.68,14.75s28.28,22.83,46.26,30.25C208.52,487.56,256.33,476,290,456.4c14.56-8.49,27.72-18.43,43.57-25.49s35.57-11,52.83-6.13c14.19,4,24.63,13.24,38.16,18.37V573.41h-455Z" transform="translate(71.83 126.15)"/><path class="cls-8" d="M424.53,64.73c-24.44-8-38,.23-58.3,22-13.64,14.63-25.15,35.46-41.41,41.77-19.86,7.71-40.37-8.92-55.68-29.28s-28.29-45.31-46.27-60c-37.34-30.57-85.14-7.65-118.79,31.28-14.55,16.85-27.71,36.58-43.56,50.59S25,142.87,7.69,133.23C-6.51,125.31-16.95,107-30.48,96.77V-56.31h455Z" transform="translate(71.83 126.15)"/><path class="cls-9" d="M-4.33,46c27.71-6.18,43.07.18,66.1,17.06C77.23,74.4,90.28,90.54,108.71,95.44c22.52,6,45.77-6.92,63.13-22.7s32.07-35.12,52.45-46.53C266.62,2.51,320.82,20.28,359,50.46c16.5,13,31.42,28.35,49.39,39.21s40.32,16.9,59.89,9.43c16.09-6.14,27.93-20.37,43.27-28.26V-11.91H-4.33Z" transform="translate(71.83 126.15)"/><path class="cls-10" d="M66.26,97.73a3,3,0,1,1-3-3A3,3,0,0,1,66.26,97.73Z" transform="translate(71.83 126.15)"/><path class="cls-10" d="M287.71,389.05a3,3,0,1,1-3-3A3,3,0,0,1,287.71,389.05Z" transform="translate(71.83 126.15)"/><path class="cls-10" d="M85.28,469.74a1.54,1.54,0,1,1-1.54-1.54A1.54,1.54,0,0,1,85.28,469.74Z" transform="translate(71.83 126.15)"/><circle class="cls-10" cx="413.83" cy="511.49" r="3.3"/><path class="cls-10" d="M102.42,445.24a3.79,3.79,0,1,1-3.79-3.79A3.79,3.79,0,0,1,102.42,445.24Z" transform="translate(71.83 126.15)"/><path class="cls-10" d="M70,77.14a1.81,1.81,0,1,1-1.81-1.81A1.81,1.81,0,0,1,70,77.14Z" transform="translate(71.83 126.15)"/><path class="cls-10" d="M334.7,412.38a1.81,1.81,0,1,1-1.8-1.81A1.81,1.81,0,0,1,334.7,412.38Z" transform="translate(71.83 126.15)"/><circle class="cls-10" cx="99.76" cy="214.43" r="1.08"/><path class="cls-10" d="M373.25,288.57a1.09,1.09,0,1,1-1.08-1.09A1.08,1.08,0,0,1,373.25,288.57Z" transform="translate(71.83 126.15)"/><path class="cls-10" d="M136.51,415.05a1.06,1.06,0,1,1-1.06-1.06A1.07,1.07,0,0,1,136.51,415.05Z" transform="translate(71.83 126.15)"/><path class="cls-10" d="M37.88,395.79a2.23,2.23,0,1,1-2.22-2.23A2.22,2.22,0,0,1,37.88,395.79Z" transform="translate(71.83 126.15)"/><circle class="cls-10" cx="416.62" cy="444.79" r="1.08"/><path class="cls-11" d="M407.58,555h1.84V-47.6h-1.84V-13H368.53V-47.6h-1.84V-13h-39V-47.6h-1.84V-13H286.76V-47.6h-1.84V-13H245.87V-47.6H244V-13H205V-47.6h-1.84V-13H164.1V-47.6h-1.84V-13h-39V-47.6h-1.84V-13h-39V-47.6H80.49V-13h-39V-47.6H39.6V-13H.56V-47.6H-1.29V555H.56V520.38h39V555h1.84V520.38H80.49V555h1.84V520.38h39V555h1.84V520.38h39.05V555h1.84V520.38h39.05V555H205V520.38h39V555h1.84V520.38h39.05V555h1.84V520.38h39.05V555h1.84V520.38h39V555h1.84V520.38h39.05Zm-368-36.49H.56v-39h39Zm40.89,0h-39v-39H80.49Zm40.88,0h-39v-39h39Zm40.89,0h-39v-39h39.05Zm40.89,0H164.1v-39h39.05Zm40.88,0H205v-39h39Zm40.89,0H245.87v-39h39.05Zm40.89,0H286.76v-39h39.05Zm40.88,0h-39v-39h39Zm40.89,0H368.53v-39h39.05Zm-368-40.89H.56v-39h39Zm40.89,0h-39v-39H80.49Zm40.88,0h-39v-39h39Zm40.89,0h-39v-39h39.05Zm40.89,0H164.1v-39h39.05Zm40.88,0H205v-39h39Zm40.89,0H245.87v-39h39.05Zm40.89,0H286.76v-39h39.05Zm40.88,0h-39v-39h39Zm40.89,0H368.53v-39h39.05Zm-368-40.88H.56v-39h39Zm40.89,0h-39v-39H80.49Zm40.88,0h-39v-39h39Zm40.89,0h-39v-39h39.05Zm40.89,0H164.1v-39h39.05Zm40.88,0H205v-39h39Zm40.89,0H245.87v-39h39.05Zm40.89,0H286.76v-39h39.05Zm40.88,0h-39v-39h39Zm40.89,0H368.53v-39h39.05Zm-368-40.89H.56v-39h39Zm40.89,0h-39v-39H80.49Zm40.88,0h-39v-39h39Zm40.89,0h-39v-39h39.05Zm40.89,0H164.1v-39h39.05Zm40.88,0H205v-39h39Zm40.89,0H245.87v-39h39.05Zm40.89,0H286.76v-39h39.05Zm40.88,0h-39v-39h39Zm40.89,0H368.53v-39h39.05ZM39.6,355H.56V316h39Zm40.89,0h-39V316H80.49Zm40.88,0h-39V316h39Zm40.89,0h-39V316h39.05Zm40.89,0H164.1V316h39.05ZM244,355H205V316h39Zm40.89,0H245.87V316h39.05Zm40.89,0H286.76V316h39.05Zm40.88,0h-39V316h39Zm40.89,0H368.53V316h39.05Zm-368-40.88H.56V275.06h39Zm40.89,0h-39V275.06H80.49Zm40.88,0h-39V275.06h39Zm40.89,0h-39V275.06h39.05Zm40.89,0H164.1V275.06h39.05Zm40.88,0H205V275.06h39Zm40.89,0H245.87V275.06h39.05Zm40.89,0H286.76V275.06h39.05Zm40.88,0h-39V275.06h39Zm40.89,0H368.53V275.06h39.05Zm-368-40.89H.56v-39h39Zm40.89,0h-39v-39H80.49Zm40.88,0h-39v-39h39Zm40.89,0h-39v-39h39.05Zm40.89,0H164.1v-39h39.05Zm40.88,0H205v-39h39Zm40.89,0H245.87v-39h39.05Zm40.89,0H286.76v-39h39.05Zm40.88,0h-39v-39h39Zm40.89,0H368.53v-39h39.05Zm-368-40.89H.56v-39h39Zm40.89,0h-39v-39H80.49Zm40.88,0h-39v-39h39Zm40.89,0h-39v-39h39.05Zm40.89,0H164.1v-39h39.05Zm40.88,0H205v-39h39Zm40.89,0H245.87v-39h39.05Zm40.89,0H286.76v-39h39.05Zm40.88,0h-39v-39h39Zm40.89,0H368.53v-39h39.05Zm-368-40.88H.56v-39h39Zm40.89,0h-39v-39H80.49Zm40.88,0h-39v-39h39Zm40.89,0h-39v-39h39.05Zm40.89,0H164.1v-39h39.05Zm40.88,0H205v-39h39Zm40.89,0H245.87v-39h39.05Zm40.89,0H286.76v-39h39.05Zm40.88,0h-39v-39h39Zm40.89,0H368.53v-39h39.05Zm-368-40.89H.56v-39h39Zm40.89,0h-39v-39H80.49Zm40.88,0h-39v-39h39Zm40.89,0h-39v-39h39.05Zm40.89,0H164.1v-39h39.05Zm40.88,0H205v-39h39Zm40.89,0H245.87v-39h39.05Zm40.89,0H286.76v-39h39.05Zm40.88,0h-39v-39h39Zm40.89,0H368.53v-39h39.05Zm-368-40.89H.56v-39h39Zm40.89,0h-39v-39H80.49Zm40.88,0h-39v-39h39Zm40.89,0h-39v-39h39.05Zm40.89,0H164.1v-39h39.05Zm40.88,0H205v-39h39Zm40.89,0H245.87v-39h39.05Zm40.89,0H286.76v-39h39.05Zm40.88,0h-39v-39h39Zm40.89,0H368.53v-39h39.05ZM39.6,68.79H.56V29.74h39Zm40.89,0h-39V29.74H80.49Zm40.88,0h-39V29.74h39Zm40.89,0h-39V29.74h39.05Zm40.89,0H164.1V29.74h39.05Zm40.88,0H205V29.74h39Zm40.89,0H245.87V29.74h39.05Zm40.89,0H286.76V29.74h39.05Zm40.88,0h-39V29.74h39Zm40.89,0H368.53V29.74h39.05ZM39.6,27.9H.56v-39h39Zm40.89,0h-39v-39H80.49Zm40.88,0h-39v-39h39Zm40.89,0h-39v-39h39.05Zm40.89,0H164.1v-39h39.05Zm40.88,0H205v-39h39Zm40.89,0H245.87v-39h39.05Zm40.89,0H286.76v-39h39.05Zm40.88,0h-39v-39h39Zm40.89,0H368.53v-39h39.05Z" transform="translate(71.83 126.15)"/><g class="cls-12"><line class="cls-13" x1="12.6" y1="648.88" x2="184.52" y2="476.96"/><path class="cls-10" d="M-57,524.71a3,3,0,0,1-4.17,0,3,3,0,0,1,0-4.17,3,3,0,0,1,4.17,0A3,3,0,0,1-57,524.71Z" transform="translate(71.83 126.15)"/><circle class="cls-10" cx="184.41" cy="477.07" r="2.95"/></g><g class="cls-12"><line class="cls-13" x1="411.27" y1="298.54" x2="551.22" y2="158.59"/><path class="cls-10" d="M341.64,174.37a2.95,2.95,0,1,1,0-4.17A3,3,0,0,1,341.64,174.37Z" transform="translate(71.83 126.15)"/><path class="cls-10" d="M481.38,34.63a2.95,2.95,0,1,0-4.17,0A3,3,0,0,0,481.38,34.63Z" transform="translate(71.83 126.15)"/></g><g class="cls-12"><line class="cls-13" x1="370.02" y1="645.16" x2="509.97" y2="505.21"/><circle class="cls-10" cx="370.12" cy="645.06" r="2.95"/><path class="cls-10" d="M440.12,381.25a2.95,2.95,0,1,0-4.17,0A3,3,0,0,0,440.12,381.25Z" transform="translate(71.83 126.15)"/></g><g class="cls-12"><line class="cls-13" x1="393.49" y1="664.33" x2="533.44" y2="524.38"/><path class="cls-10" d="M323.85,540.16a2.95,2.95,0,1,1,0-4.17A3,3,0,0,1,323.85,540.16Z" transform="translate(71.83 126.15)"/><path class="cls-10" d="M463.59,400.42a2.95,2.95,0,1,0-4.17,0A3,3,0,0,0,463.59,400.42Z" transform="translate(71.83 126.15)"/></g><g class="cls-12"><line class="cls-13" x1="175.07" y1="286.28" x2="389.53" y2="71.82"/><path class="cls-10" d="M105.43,162.11a2.95,2.95,0,1,1,0-4.17A3,3,0,0,1,105.43,162.11Z" transform="translate(71.83 126.15)"/><path class="cls-10" d="M319.68-52.14a3,3,0,0,0,0-4.17,2.94,2.94,0,0,0-4.16,0,2.93,2.93,0,0,0,0,4.17A2.94,2.94,0,0,0,319.68-52.14Z" transform="translate(71.83 126.15)"/></g><g class="cls-12"><line class="cls-13" x1="270.88" y1="217.3" x2="485.34" y2="2.84"/><circle class="cls-10" cx="270.98" cy="217.2" r="2.95"/><path class="cls-10" d="M415.49-121.12a3,3,0,0,0,0-4.17,3,3,0,0,0-4.17,0,3,3,0,0,0,0,4.17A3,3,0,0,0,415.49-121.12Z" transform="translate(71.83 126.15)"/></g><g class="cls-12"><line class="cls-13" x1="41.91" y1="666.3" x2="166.89" y2="541.31"/><path class="cls-10" d="M-27.73,542.13a3,3,0,0,1-4.17,0,3,3,0,0,1,0-4.17,3,3,0,0,1,4.17,0A3,3,0,0,1-27.73,542.13Z" transform="translate(71.83 126.15)"/><circle class="cls-10" cx="166.79" cy="541.42" r="2.95"/></g><path class="cls-14" d="M315.48,413.18a9.2,9.2,0,1,1-9.2-9.2A9.19,9.19,0,0,1,315.48,413.18Z" transform="translate(71.83 126.15)"/><circle class="cls-15" cx="378.11" cy="539.33" r="18.09"/><circle class="cls-14" cx="112.85" cy="262.65" r="9.2"/><circle class="cls-15" cx="112.85" cy="262.65" r="18.09"/><path class="cls-14" d="M332,41.25a13.07,13.07,0,1,1,5.32-17.71A13.05,13.05,0,0,1,332,41.25Z" transform="translate(71.83 126.15)"/><circle class="cls-15" cx="325.81" cy="29.74" r="19.77" transform="translate(317.32 473.05) rotate(-81.01)"/></g></g></g></g></g></svg>